<?xml version="1.0" encoding="UTF-8" standalone="no"?>
<!DOCTYPE svg PUBLIC "-//W3C//DTD SVG 1.1//EN" "http://www.w3.org/Graphics/SVG/1.1/DTD/svg11.dtd">
<svg version="1.1" xmlns="http://www.w3.org/2000/svg" xmlns:xlink="http://www.w3.org/1999/xlink" preserveAspectRatio="xMidYMid meet" viewBox="-2.1289006743923053 14.260721070620676 266.5014671421791 278.8011135790155" width="231.5" height="260.3"><defs><path d="M133.31 268.85C71.24 268.25 21.32 217.36 21.92 155.28C22.53 93.21 73.42 43.31 135.49 43.91C197.56 44.51 247.47 95.39 246.87 157.46C246.27 219.54 195.39 269.45 133.31 268.85Z" id="h1rtvbpviy"></path><path d="M159.71 38.28L136.69 61.29L113.68 38.28L136.69 15.26L159.71 38.28Z" id="b7dsP82Gh"></path><path d="M127.85 275.56C65.77 275.56 15.37 225.16 15.37 163.08C15.37 101 65.77 50.61 127.85 50.61C189.93 50.61 240.32 101 240.32 163.08C240.32 225.16 189.93 275.56 127.85 275.56Z" id="cyQ1M8u4N"></path><path d="M157.41 42.7L134.4 65.72L111.38 42.7L134.4 19.69L157.41 42.7Z" id="a3tKh0zVJl"></path><path d="M177.75 99.46L178.04 99.51L178.34 99.55L178.64 99.61L178.93 99.68L179.21 99.76L179.5 99.85L179.78 99.96L180.06 100.06L180.33 100.19L180.59 100.32L180.86 100.46L181.37 100.76L181.87 101.09L182.1 101.27L182.34 101.47L182.56 101.65L182.79 101.86L183.21 102.28L183.6 102.74L183.8 102.98L184.15 103.47L184.32 103.73L184.47 103.99L184.77 104.53L185.04 105.09L185.16 105.38L185.46 106.27L185.54 106.58L192.7 137.77L192.7 137.88L192.71 138L192.73 138.12L192.75 138.23L192.83 138.45L192.87 138.57L192.92 138.68L193.04 138.9L193.18 139.11L193.34 139.31L193.42 139.42L193.61 139.61L193.91 139.88L194.01 139.96L194.13 140.05L194.23 140.13L194.35 140.2L194.71 140.41L194.82 140.47L195.07 140.57L195.18 140.62L195.31 140.67L195.44 140.71L195.67 140.77L195.81 140.79L195.92 140.81L196.04 140.83L196.16 140.84L201.38 140.84L201.7 140.85L202 140.86L202.6 140.93L202.89 141L203.18 141.07L203.47 141.15L204.04 141.35L204.32 141.45L204.84 141.72L205.12 141.87L205.61 142.18L205.85 142.36L206.09 142.54L206.32 142.74L206.76 143.14L207.16 143.58L207.35 143.81L207.54 144.04L207.71 144.28L208.03 144.78L208.31 145.31L208.44 145.58L208.55 145.86L208.75 146.42L208.83 146.71L208.9 147L208.96 147.3L209 147.6L209.05 148.2L209.06 148.51L209.06 177.65L209.05 177.97L209.03 178.27L209 178.57L208.96 178.86L208.9 179.16L208.83 179.45L208.75 179.74L208.65 180.03L208.55 180.31L208.44 180.58L208.31 180.85L208.17 181.12L208.03 181.38L207.71 181.88L207.54 182.13L207.16 182.59L206.96 182.82L206.76 183.03L206.54 183.24L206.32 183.44L206.09 183.63L205.85 183.81L205.36 184.14L205.12 184.29L204.84 184.45L204.58 184.57L204.32 184.71L203.76 184.93L203.47 185.01L203.18 185.09L202.89 185.16L202.6 185.22L202 185.3L201.7 185.33L196.27 185.33L196.27 199.14L196.26 199.44L196.25 199.75L196.17 200.35L196.11 200.64L196.04 200.94L195.96 201.22L195.87 201.51L195.76 201.79L195.66 202.06L195.52 202.34L195.24 202.85L195.09 203.12L194.93 203.36L194.75 203.6L194.57 203.85L194.37 204.08L194.17 204.29L193.98 204.51L193.76 204.72L193.54 204.91L193.31 205.1L192.83 205.46L192.33 205.78L192.06 205.92L191.8 206.06L191.53 206.18L191.25 206.3L190.69 206.5L190.4 206.58L190.11 206.65L189.51 206.75L189.21 206.78L188.91 206.8L188.6 206.81L176.83 206.81L176.53 206.8L176.23 206.78L175.93 206.75L175.63 206.7L175.34 206.65L175.05 206.58L174.76 206.5L174.47 206.4L174.19 206.3L173.92 206.18L173.64 206.06L173.12 205.78L172.61 205.46L172.13 205.1L171.9 204.91L171.68 204.72L171.26 204.29L171.06 204.08L170.88 203.85L170.52 203.36L170.35 203.12L170.19 202.85L169.91 202.34L169.8 202.06L169.67 201.79L169.58 201.51L169.49 201.22L169.4 200.94L169.33 200.64L169.28 200.35L169.23 200.05L169.2 199.75L169.17 199.44L169.16 199.14L169.16 185.33L99.61 185.33L99.61 199.14L99.6 199.44L99.59 199.75L99.51 200.35L99.45 200.64L99.38 200.94L99.3 201.22L99.22 201.51L99 202.06L98.86 202.34L98.73 202.6L98.43 203.12L98.27 203.36L98.09 203.6L97.92 203.85L97.71 204.08L97.52 204.29L97.32 204.51L97.1 204.72L96.88 204.91L96.65 205.1L96.17 205.46L95.67 205.78L95.41 205.92L95.14 206.06L94.87 206.18L94.59 206.3L94.03 206.5L93.74 206.58L93.45 206.65L92.85 206.75L92.55 206.78L92.25 206.8L91.94 206.81L80.19 206.81L79.87 206.8L79.57 206.78L79.27 206.75L78.98 206.7L78.68 206.65L78.39 206.58L78.1 206.5L77.81 206.4L77.53 206.3L76.99 206.06L76.72 205.92L76.46 205.78L76.2 205.62L75.96 205.46L75.71 205.28L75.48 205.1L75.02 204.72L74.6 204.29L74.4 204.08L74.22 203.85L74.03 203.6L73.86 203.36L73.69 203.12L73.39 202.6L73.25 202.34L73.14 202.06L73.01 201.79L72.92 201.51L72.83 201.22L72.74 200.94L72.68 200.64L72.62 200.35L72.56 200.05L72.54 199.75L72.51 199.44L72.51 185.33L67.09 185.33L66.79 185.3L66.48 185.27L66.2 185.22L65.89 185.16L65.6 185.09L65.31 185.01L65.02 184.93L64.75 184.82L64.47 184.71L63.94 184.45L63.41 184.14L63.17 183.98L62.93 183.81L62.7 183.63L62.46 183.44L62.23 183.24L61.81 182.82L61.43 182.36L61.25 182.13L60.91 181.63L60.61 181.12L60.47 180.85L60.23 180.31L60.13 180.03L60.04 179.74L59.96 179.45L59.89 179.16L59.83 178.86L59.77 178.57L59.75 178.27L59.73 177.97L59.73 148.2L59.75 147.9L59.77 147.6L59.83 147.3L59.89 147L59.96 146.71L60.04 146.42L60.13 146.14L60.23 145.86L60.35 145.58L60.47 145.31L60.61 145.05L60.76 144.78L60.91 144.54L61.07 144.28L61.43 143.81L61.62 143.58L61.81 143.36L62.02 143.14L62.23 142.94L62.46 142.74L62.93 142.36L63.17 142.18L63.41 142.02L63.68 141.87L63.94 141.72L64.47 141.45L64.75 141.35L65.02 141.25L65.31 141.15L65.6 141.07L65.89 141L66.2 140.93L66.48 140.9L66.79 140.86L67.09 140.85L67.4 140.84L72.63 140.84L72.74 140.83L72.85 140.81L72.98 140.79L73.2 140.74L73.43 140.67L73.53 140.62L73.65 140.57L73.75 140.52L73.86 140.47L73.97 140.41L74.39 140.13L74.49 140.05L74.58 139.96L74.68 139.88L74.78 139.79L74.96 139.61L75.05 139.51L75.14 139.42L75.22 139.31L75.38 139.11L75.46 139L75.53 138.9L75.67 138.68L75.79 138.45L75.91 138.23L75.96 138.12L76.01 138L76.05 137.88L76.09 137.77L83.25 106.58L83.33 106.27L83.42 105.97L83.52 105.67L83.63 105.38L83.76 105.09L83.87 104.81L84.15 104.26L84.3 103.99L84.46 103.73L84.63 103.47L84.81 103.22L84.99 102.98L85.18 102.74L85.37 102.51L85.57 102.28L85.78 102.07L86.22 101.65L86.68 101.27L86.92 101.09L87.16 100.92L87.41 100.76L87.93 100.46L88.18 100.32L88.46 100.19L88.73 100.06L89.29 99.85L89.56 99.76L89.85 99.68L90.14 99.61L90.43 99.55L90.73 99.51L91.04 99.46L91.34 99.44L91.64 99.41L177.15 99.41L177.45 99.44L177.75 99.46ZM83.1 152.96L81.83 153.4L80.65 154.01L79.57 154.74L78.59 155.6L77.72 156.59L76.98 157.68L76.39 158.85L75.94 160.12L75.67 161.45L75.58 162.83L75.67 164.21L75.94 165.54L76.39 166.8L76.98 167.97L77.72 169.06L78.59 170.05L79.57 170.92L80.65 171.65L81.83 172.25L83.1 172.69L84.42 172.96L85.81 173.06L87.19 172.96L88.52 172.69L89.77 172.25L90.97 171.65L92.04 170.92L93.03 170.05L93.9 169.06L94.63 167.97L95.23 166.8L95.67 165.54L95.94 164.21L96.04 162.83L95.94 161.45L95.67 160.12L95.23 158.85L94.63 157.68L93.9 156.59L93.03 155.6L92.04 154.74L90.97 154.01L89.77 153.4L88.52 152.96L87.19 152.7L85.81 152.6L84.42 152.7L83.1 152.96ZM179.75 152.96L178.49 153.4L177.32 154.01L176.23 154.74L175.23 155.6L174.38 156.59L173.64 157.68L173.04 158.85L172.6 160.12L172.33 161.45L172.24 162.83L172.33 164.21L172.6 165.54L173.04 166.8L173.64 167.97L174.38 169.06L175.23 170.05L176.23 170.92L177.32 171.65L178.49 172.25L179.75 172.69L181.08 172.96L182.47 173.06L183.85 172.96L185.18 172.69L186.43 172.25L187.61 171.65L188.7 170.92L189.69 170.05L190.55 169.06L191.29 167.97L191.89 166.8L192.33 165.54L192.6 164.21L192.7 162.83L192.6 161.45L192.33 160.12L191.89 158.85L191.29 157.68L190.55 156.59L189.69 155.6L188.7 154.74L187.61 154.01L186.43 153.4L185.18 152.96L183.85 152.7L182.47 152.6L181.08 152.7L179.75 152.96ZM85.81 143.39L181.95 143.39L174.79 110.16L92.97 110.16L85.81 143.39Z" id="e9X3YWYqh1"></path><path d="M171.21 106.56L171.5 106.61L171.8 106.65L172.1 106.71L172.39 106.78L172.67 106.86L172.96 106.95L173.24 107.06L173.5 107.16L173.78 107.28L174.05 107.42L174.32 107.56L174.83 107.86L175.32 108.19L175.8 108.56L176.02 108.75L176.24 108.96L176.67 109.38L177.06 109.84L177.25 110.08L177.61 110.57L177.77 110.83L177.93 111.09L178.23 111.63L178.49 112.19L178.61 112.48L178.71 112.77L178.91 113.36L178.99 113.68L186.15 144.87L186.15 144.98L186.16 145.1L186.18 145.21L186.2 145.33L186.28 145.55L186.32 145.67L186.37 145.78L186.49 146L186.64 146.21L186.79 146.41L186.87 146.51L187.06 146.71L187.36 146.98L187.47 147.06L187.58 147.15L187.69 147.23L187.8 147.3L188.16 147.51L188.28 147.57L188.4 147.61L188.52 147.67L188.64 147.72L188.77 147.77L188.89 147.81L189.13 147.87L189.26 147.89L189.38 147.9L189.5 147.93L189.6 147.94L194.84 147.94L195.16 147.95L195.45 147.96L196.05 148.03L196.35 148.1L196.64 148.17L196.93 148.24L197.49 148.45L197.76 148.55L198.04 148.68L198.3 148.82L198.56 148.96L199.06 149.28L199.31 149.46L199.55 149.64L199.78 149.83L200.22 150.23L200.62 150.67L200.8 150.91L201 151.14L201.16 151.38L201.48 151.88L201.76 152.41L201.89 152.68L202.01 152.96L202.2 153.52L202.28 153.81L202.35 154.09L202.41 154.4L202.46 154.7L202.48 155L202.5 155.3L202.52 155.61L202.52 184.75L202.48 185.37L202.46 185.67L202.41 185.96L202.35 186.26L202.28 186.55L202.2 186.84L202.1 187.13L202.01 187.41L201.89 187.68L201.76 187.95L201.62 188.22L201.48 188.48L201.16 188.98L201 189.23L200.62 189.69L200.42 189.92L200.22 190.13L200 190.34L199.78 190.54L199.55 190.72L199.31 190.91L198.82 191.24L198.56 191.39L198.3 191.54L198.04 191.67L197.76 191.81L197.21 192.02L196.93 192.11L196.64 192.19L196.35 192.26L196.05 192.32L195.45 192.4L195.16 192.42L189.73 192.42L189.73 206.24L189.72 206.54L189.7 206.84L189.67 207.15L189.63 207.45L189.57 207.74L189.5 208.04L189.42 208.32L189.31 208.61L189.22 208.88L189.11 209.16L188.98 209.43L188.7 209.95L188.54 210.22L188.38 210.46L188.21 210.7L188.02 210.95L187.83 211.17L187.63 211.39L187.43 211.6L187.22 211.82L187 212.01L186.76 212.2L186.28 212.56L185.78 212.88L185.51 213.02L185.26 213.16L184.98 213.28L184.7 213.4L184.14 213.6L183.85 213.68L183.56 213.75L182.96 213.85L182.66 213.88L182.37 213.9L182.06 213.91L170.29 213.91L169.99 213.9L169.68 213.88L169.38 213.85L169.08 213.8L168.79 213.75L168.5 213.68L168.21 213.6L167.93 213.5L167.64 213.4L167.37 213.28L167.09 213.16L166.57 212.88L166.06 212.56L165.59 212.2L165.13 211.82L164.72 211.39L164.52 211.17L164.32 210.95L163.96 210.46L163.81 210.22L163.65 209.95L163.37 209.43L163.25 209.16L163.13 208.88L163.03 208.61L162.94 208.32L162.86 208.04L162.79 207.74L162.72 207.45L162.68 207.15L162.65 206.84L162.63 206.54L162.62 206.24L162.62 192.42L93.07 192.42L93.07 206.24L93.06 206.54L93.05 206.84L92.97 207.45L92.91 207.74L92.84 208.04L92.76 208.32L92.67 208.61L92.45 209.16L92.32 209.43L92.19 209.7L91.89 210.22L91.72 210.46L91.55 210.7L91.37 210.95L91.17 211.17L90.97 211.39L90.77 211.6L90.55 211.82L90.33 212.01L90.1 212.2L89.62 212.56L89.12 212.88L88.6 213.16L88.32 213.28L88.04 213.4L87.48 213.6L87.2 213.68L86.91 213.75L86.3 213.85L86 213.88L85.71 213.9L85.4 213.91L73.64 213.91L73.33 213.9L73.03 213.88L72.72 213.85L72.43 213.8L72.13 213.75L71.84 213.68L71.55 213.6L71.26 213.5L70.98 213.4L70.45 213.16L70.18 213.02L69.91 212.88L69.66 212.72L69.41 212.56L69.17 212.38L68.94 212.2L68.48 211.82L68.06 211.39L67.86 211.17L67.66 210.95L67.49 210.7L67.32 210.46L67.14 210.22L66.85 209.7L66.71 209.43L66.59 209.16L66.47 208.88L66.37 208.61L66.28 208.32L66.2 208.04L66.13 207.74L66.07 207.45L66.02 207.15L65.99 206.84L65.97 206.54L65.97 192.42L60.55 192.42L60.25 192.4L59.93 192.37L59.64 192.32L59.34 192.26L59.05 192.19L58.76 192.11L58.47 192.02L58.19 191.91L57.93 191.81L57.39 191.54L56.87 191.24L56.63 191.08L56.38 190.91L55.92 190.54L55.69 190.34L55.27 189.92L54.88 189.46L54.7 189.23L54.36 188.73L54.07 188.22L53.92 187.95L53.68 187.41L53.58 187.13L53.49 186.84L53.42 186.55L53.34 186.26L53.28 185.96L53.23 185.67L53.2 185.37L53.19 185.06L53.19 155.3L53.2 155L53.23 154.7L53.28 154.4L53.34 154.09L53.42 153.81L53.49 153.52L53.58 153.24L53.68 152.96L53.8 152.68L53.92 152.41L54.07 152.14L54.21 151.88L54.36 151.64L54.53 151.38L54.7 151.14L54.88 150.91L55.08 150.67L55.27 150.45L55.48 150.23L55.69 150.04L55.92 149.83L56.38 149.46L56.63 149.28L56.87 149.12L57.13 148.96L57.39 148.82L57.93 148.55L58.19 148.45L58.47 148.34L58.76 148.24L59.05 148.17L59.34 148.1L59.64 148.03L59.93 148L60.25 147.96L60.55 147.95L60.86 147.94L66.08 147.94L66.2 147.93L66.31 147.9L66.42 147.89L66.64 147.84L66.77 147.81L66.88 147.77L66.99 147.72L67.1 147.67L67.21 147.61L67.32 147.57L67.43 147.51L67.64 147.37L67.73 147.3L67.85 147.23L67.94 147.15L68.04 147.06L68.14 146.98L68.23 146.88L68.42 146.71L68.59 146.51L68.67 146.41L68.83 146.21L68.92 146.1L68.99 146L69.12 145.78L69.18 145.67L69.24 145.55L69.37 145.33L69.41 145.21L69.46 145.1L69.51 144.98L69.54 144.87L76.71 113.68L76.79 113.36L76.88 113.06L76.97 112.77L77.2 112.19L77.33 111.9L77.61 111.36L77.76 111.09L77.91 110.83L78.08 110.57L78.27 110.32L78.44 110.08L78.63 109.84L79.02 109.38L79.23 109.17L79.67 108.75L80.14 108.37L80.37 108.19L80.61 108.02L80.87 107.86L81.38 107.56L81.64 107.42L81.91 107.28L82.18 107.16L82.46 107.06L82.74 106.95L83.02 106.86L83.31 106.78L83.6 106.71L83.89 106.65L84.48 106.56L84.78 106.54L85.1 106.51L170.6 106.51L170.9 106.54L171.21 106.56ZM173.2 160.06L171.95 160.5L170.77 161.1L169.68 161.84L168.69 162.69L167.84 163.69L167.09 164.78L166.49 165.95L166.05 167.21L165.78 168.54L165.69 169.93L165.78 171.31L166.05 172.64L166.49 173.89L167.09 175.07L167.84 176.16L168.69 177.15L169.68 178.02L170.77 178.75L171.95 179.35L173.2 179.79L174.54 180.06L175.93 180.16L177.31 180.06L178.63 179.79L179.89 179.35L181.07 178.75L182.16 178.02L183.15 177.15L184.01 176.16L184.75 175.07L185.34 173.89L185.78 172.64L186.06 171.31L186.15 169.93L186.06 168.54L185.78 167.21L185.34 165.95L184.75 164.78L184.01 163.69L183.15 162.69L182.16 161.84L181.07 161.1L179.89 160.5L178.63 160.06L177.31 159.8L175.93 159.7L174.54 159.8L173.2 160.06ZM76.54 160.06L75.29 160.5L74.11 161.1L73.02 161.84L72.05 162.69L71.18 163.69L70.43 164.78L69.84 165.95L69.39 167.21L69.12 168.54L69.03 169.93L69.12 171.31L69.39 172.64L69.84 173.89L70.43 175.07L71.18 176.16L72.05 177.15L73.02 178.02L74.11 178.75L75.29 179.35L76.54 179.79L77.88 180.06L79.27 180.16L80.65 180.06L81.97 179.79L83.23 179.35L84.41 178.75L85.49 178.02L86.49 177.15L87.36 176.16L88.09 175.07L88.68 173.89L89.12 172.64L89.39 171.31L89.49 169.93L89.39 168.54L89.12 167.21L88.68 165.95L88.09 164.78L87.36 163.69L86.49 162.69L85.49 161.84L84.41 161.1L83.23 160.5L81.97 160.06L80.65 159.8L79.27 159.7L77.88 159.8L76.54 160.06ZM79.27 150.49L175.4 150.49L168.25 117.25L86.43 117.25L79.27 150.49Z" id="b1al79IERD"></path></defs><g><g><use xlink:href="#h1rtvbpviy" opacity="1" fill="#f8c9c9" fill-opacity="1"></use><g><use xlink:href="#h1rtvbpviy" opacity="1" fill-opacity="0" stroke="#510b0b" stroke-width="35" stroke-opacity="1"></use></g></g><g><use xlink:href="#b7dsP82Gh" opacity="1" fill="#510b0b" fill-opacity="1"></use><g><use xlink:href="#b7dsP82Gh" opacity="1" fill-opacity="0" stroke="#000000" stroke-width="1" stroke-opacity="0"></use></g></g><g><use xlink:href="#cyQ1M8u4N" opacity="1" fill="#000000" fill-opacity="0"></use><g><use xlink:href="#cyQ1M8u4N" opacity="1" fill-opacity="0" stroke="#e91717" stroke-width="35" stroke-opacity="1"></use></g></g><g><use xlink:href="#a3tKh0zVJl" opacity="1" fill="#e91717" fill-opacity="1"></use><g><use xlink:href="#a3tKh0zVJl" opacity="1" fill-opacity="0" stroke="#000000" stroke-width="1" stroke-opacity="0"></use></g></g><g><use xlink:href="#e9X3YWYqh1" opacity="1" fill="#510b0b" fill-opacity="1"></use><g><use xlink:href="#e9X3YWYqh1" opacity="1" fill-opacity="0" stroke="#510b0b" stroke-width="1" stroke-opacity="0"></use></g></g><g><use xlink:href="#b1al79IERD" opacity="1" fill="#e91717" fill-opacity="1"></use><g><use xlink:href="#b1al79IERD" opacity="1" fill-opacity="0" stroke="#000000" stroke-width="1" stroke-opacity="0"></use></g></g></g></svg>