<?xml version="1.0" encoding="UTF-8" standalone="no"?>
<!DOCTYPE svg PUBLIC "-//W3C//DTD SVG 1.1//EN" "http://www.w3.org/Graphics/SVG/1.1/DTD/svg11.dtd">
<svg version="1.1" xmlns="http://www.w3.org/2000/svg" xmlns:xlink="http://www.w3.org/1999/xlink" preserveAspectRatio="xMidYMid meet" viewBox="-2.1289006743923053 13.170977480877085 266.5014671421791 279.8908571687591" width="231.5" height="261.39"><defs><path d="M133.31 268.85C71.24 268.25 21.32 217.36 21.92 155.28C22.53 93.21 73.42 43.31 135.49 43.91C197.56 44.51 247.47 95.39 246.87 157.46C246.27 219.54 195.39 269.45 133.31 268.85Z" id="b5Uad79AP"></path><path d="M159.71 37.19L136.69 60.2L113.68 37.19L136.69 14.17L159.71 37.19Z" id="bRTlyugxC"></path><path d="M127.85 275.56C65.77 275.56 15.37 225.16 15.37 163.08C15.37 101 65.77 50.61 127.85 50.61C189.93 50.61 240.32 101 240.32 163.08C240.32 225.16 189.93 275.56 127.85 275.56Z" id="d3l3UAlJXq"></path><path d="M157.41 42.7L134.4 65.72L111.38 42.7L134.4 19.69L157.41 42.7Z" id="e9pEYCGES"></path><path d="M177.75 98.38L178.04 98.42L178.34 98.46L178.64 98.52L178.93 98.59L179.21 98.67L179.5 98.76L179.78 98.87L180.06 98.97L180.33 99.1L180.59 99.23L180.86 99.37L181.37 99.67L181.87 100L182.1 100.18L182.34 100.38L182.56 100.56L182.79 100.77L183.21 101.19L183.6 101.65L183.8 101.89L184.15 102.38L184.32 102.64L184.47 102.9L184.77 103.44L185.04 104L185.16 104.29L185.46 105.18L185.54 105.49L192.7 136.68L192.7 136.79L192.71 136.91L192.73 137.03L192.75 137.14L192.83 137.36L192.87 137.48L192.92 137.59L193.04 137.81L193.18 138.02L193.34 138.22L193.42 138.33L193.61 138.52L193.91 138.79L194.01 138.87L194.13 138.96L194.23 139.04L194.35 139.11L194.71 139.32L194.82 139.38L195.07 139.48L195.18 139.53L195.31 139.58L195.44 139.62L195.67 139.68L195.81 139.7L195.92 139.72L196.04 139.74L196.16 139.75L201.38 139.75L201.7 139.76L202 139.77L202.6 139.84L202.89 139.91L203.18 139.98L203.47 140.06L204.04 140.26L204.32 140.36L204.84 140.63L205.12 140.78L205.61 141.09L205.85 141.27L206.09 141.45L206.32 141.65L206.76 142.05L207.16 142.49L207.35 142.72L207.54 142.95L207.71 143.19L208.03 143.69L208.31 144.22L208.44 144.49L208.55 144.77L208.75 145.34L208.83 145.62L208.9 145.91L208.96 146.21L209 146.51L209.05 147.11L209.06 147.42L209.06 176.56L209.05 176.88L209.03 177.18L209 177.48L208.96 177.77L208.9 178.07L208.83 178.36L208.75 178.65L208.65 178.94L208.55 179.22L208.44 179.49L208.31 179.76L208.17 180.03L208.03 180.29L207.71 180.79L207.54 181.04L207.16 181.5L206.96 181.73L206.76 181.94L206.54 182.15L206.32 182.35L206.09 182.54L205.85 182.72L205.36 183.05L205.12 183.2L204.84 183.36L204.58 183.48L204.32 183.62L203.76 183.84L203.47 183.92L203.18 184L202.89 184.07L202.6 184.13L202 184.21L201.7 184.24L196.27 184.24L196.27 198.05L196.26 198.35L196.25 198.66L196.17 199.26L196.11 199.55L196.04 199.85L195.96 200.13L195.87 200.42L195.76 200.7L195.66 200.97L195.52 201.25L195.24 201.76L195.09 202.03L194.93 202.27L194.75 202.51L194.57 202.76L194.37 202.99L194.17 203.2L193.98 203.42L193.76 203.63L193.54 203.82L193.31 204.01L192.83 204.37L192.33 204.69L192.06 204.83L191.8 204.97L191.53 205.09L191.25 205.21L190.69 205.41L190.4 205.49L190.11 205.56L189.51 205.66L189.21 205.69L188.91 205.71L188.6 205.72L176.83 205.72L176.53 205.71L176.23 205.69L175.93 205.66L175.63 205.61L175.34 205.56L175.05 205.49L174.76 205.41L174.47 205.31L174.19 205.21L173.92 205.09L173.64 204.97L173.12 204.69L172.61 204.37L172.13 204.01L171.9 203.82L171.68 203.63L171.26 203.2L171.06 202.99L170.88 202.76L170.52 202.27L170.35 202.03L170.19 201.76L169.91 201.25L169.8 200.97L169.67 200.7L169.58 200.42L169.49 200.13L169.4 199.85L169.33 199.55L169.28 199.26L169.23 198.96L169.2 198.66L169.17 198.35L169.16 198.05L169.16 184.24L99.61 184.24L99.61 198.05L99.6 198.35L99.59 198.66L99.51 199.26L99.45 199.55L99.38 199.85L99.3 200.13L99.22 200.42L99 200.97L98.86 201.25L98.73 201.51L98.43 202.03L98.27 202.27L98.09 202.51L97.92 202.76L97.71 202.99L97.52 203.2L97.32 203.42L97.1 203.63L96.88 203.82L96.65 204.01L96.17 204.37L95.67 204.69L95.41 204.83L95.14 204.97L94.87 205.09L94.59 205.21L94.03 205.41L93.74 205.49L93.45 205.56L92.85 205.66L92.55 205.69L92.25 205.71L91.94 205.72L80.19 205.72L79.87 205.71L79.57 205.69L79.27 205.66L78.98 205.61L78.68 205.56L78.39 205.49L78.1 205.41L77.81 205.31L77.53 205.21L76.99 204.97L76.72 204.83L76.46 204.69L76.2 204.53L75.96 204.37L75.71 204.19L75.48 204.01L75.02 203.63L74.6 203.2L74.4 202.99L74.22 202.76L74.03 202.51L73.86 202.27L73.69 202.03L73.39 201.51L73.25 201.25L73.14 200.97L73.01 200.7L72.92 200.42L72.83 200.13L72.74 199.85L72.68 199.55L72.62 199.26L72.56 198.96L72.54 198.66L72.51 198.35L72.51 184.24L67.09 184.24L66.79 184.21L66.48 184.18L66.2 184.13L65.89 184.07L65.6 184L65.31 183.92L65.02 183.84L64.75 183.73L64.47 183.62L63.94 183.36L63.41 183.05L63.17 182.89L62.93 182.72L62.7 182.54L62.46 182.35L62.23 182.15L61.81 181.73L61.43 181.27L61.25 181.04L60.91 180.54L60.61 180.03L60.47 179.76L60.23 179.22L60.13 178.94L60.04 178.65L59.96 178.36L59.89 178.07L59.83 177.77L59.77 177.48L59.75 177.18L59.73 176.88L59.73 147.11L59.75 146.81L59.77 146.51L59.83 146.21L59.89 145.91L59.96 145.62L60.04 145.34L60.13 145.05L60.23 144.77L60.35 144.49L60.47 144.22L60.61 143.96L60.76 143.69L60.91 143.45L61.07 143.19L61.43 142.72L61.62 142.49L61.81 142.27L62.02 142.05L62.23 141.85L62.46 141.65L62.93 141.27L63.17 141.09L63.41 140.93L63.68 140.78L63.94 140.63L64.47 140.36L64.75 140.26L65.02 140.16L65.31 140.06L65.6 139.98L65.89 139.91L66.2 139.84L66.48 139.81L66.79 139.77L67.09 139.76L67.4 139.75L72.63 139.75L72.74 139.74L72.85 139.72L72.98 139.7L73.2 139.65L73.43 139.58L73.53 139.53L73.65 139.48L73.75 139.43L73.86 139.38L73.97 139.32L74.39 139.04L74.49 138.96L74.58 138.87L74.68 138.79L74.78 138.7L74.96 138.52L75.05 138.42L75.14 138.33L75.22 138.22L75.38 138.02L75.46 137.91L75.53 137.81L75.67 137.59L75.79 137.36L75.91 137.14L75.96 137.03L76.01 136.91L76.05 136.79L76.09 136.68L83.25 105.49L83.33 105.18L83.42 104.88L83.52 104.58L83.63 104.29L83.76 104L83.87 103.72L84.15 103.17L84.3 102.9L84.46 102.64L84.63 102.38L84.81 102.13L84.99 101.89L85.18 101.65L85.37 101.42L85.57 101.19L85.78 100.98L86.22 100.56L86.68 100.18L86.92 100L87.16 99.83L87.41 99.67L87.93 99.37L88.18 99.23L88.46 99.1L88.73 98.97L89.29 98.76L89.56 98.67L89.85 98.59L90.14 98.52L90.43 98.46L90.73 98.42L91.04 98.38L91.34 98.35L91.64 98.32L177.15 98.32L177.45 98.35L177.75 98.38ZM179.75 151.87L178.49 152.31L177.32 152.92L176.23 153.65L175.23 154.51L174.38 155.5L173.64 156.59L173.04 157.76L172.6 159.03L172.33 160.36L172.24 161.74L172.33 163.12L172.6 164.45L173.04 165.71L173.64 166.88L174.38 167.97L175.23 168.96L176.23 169.83L177.32 170.56L178.49 171.16L179.75 171.6L181.08 171.87L182.47 171.97L183.85 171.87L185.18 171.6L186.43 171.16L187.61 170.56L188.7 169.83L189.69 168.96L190.55 167.97L191.29 166.88L191.89 165.71L192.33 164.45L192.6 163.12L192.7 161.74L192.6 160.36L192.33 159.03L191.89 157.76L191.29 156.59L190.55 155.5L189.69 154.51L188.7 153.65L187.61 152.92L186.43 152.31L185.18 151.87L183.85 151.61L182.47 151.51L181.08 151.61L179.75 151.87ZM83.1 151.87L81.83 152.31L80.65 152.92L79.57 153.65L78.59 154.51L77.72 155.5L76.98 156.59L76.39 157.76L75.94 159.03L75.67 160.36L75.58 161.74L75.67 163.12L75.94 164.45L76.39 165.71L76.98 166.88L77.72 167.97L78.59 168.96L79.57 169.83L80.65 170.56L81.83 171.16L83.1 171.6L84.42 171.87L85.81 171.97L87.19 171.87L88.52 171.6L89.77 171.16L90.97 170.56L92.04 169.83L93.03 168.96L93.9 167.97L94.63 166.88L95.23 165.71L95.67 164.45L95.94 163.12L96.04 161.74L95.94 160.36L95.67 159.03L95.23 157.76L94.63 156.59L93.9 155.5L93.03 154.51L92.04 153.65L90.97 152.92L89.77 152.31L88.52 151.87L87.19 151.61L85.81 151.51L84.42 151.61L83.1 151.87ZM85.81 142.3L181.95 142.3L174.79 109.07L92.97 109.07L85.81 142.3Z" id="e2BXjb1q7A"></path><path d="M171.21 106.56L171.5 106.61L171.8 106.65L172.1 106.71L172.39 106.78L172.67 106.86L172.96 106.95L173.24 107.06L173.5 107.16L173.78 107.28L174.05 107.42L174.32 107.56L174.83 107.86L175.32 108.19L175.8 108.56L176.02 108.75L176.24 108.96L176.67 109.38L177.06 109.84L177.25 110.08L177.61 110.57L177.77 110.83L177.93 111.09L178.23 111.63L178.49 112.19L178.61 112.48L178.71 112.77L178.91 113.36L178.99 113.68L186.15 144.87L186.15 144.98L186.16 145.1L186.18 145.21L186.2 145.33L186.28 145.55L186.32 145.67L186.37 145.78L186.49 146L186.64 146.21L186.79 146.41L186.87 146.51L187.06 146.71L187.36 146.98L187.47 147.06L187.58 147.15L187.69 147.23L187.8 147.3L188.16 147.51L188.28 147.57L188.4 147.61L188.52 147.67L188.64 147.72L188.77 147.77L188.89 147.81L189.13 147.87L189.26 147.89L189.38 147.9L189.5 147.93L189.6 147.94L194.84 147.94L195.16 147.95L195.45 147.96L196.05 148.03L196.35 148.1L196.64 148.17L196.93 148.24L197.49 148.45L197.76 148.55L198.04 148.68L198.3 148.82L198.56 148.96L199.06 149.28L199.31 149.46L199.55 149.64L199.78 149.83L200.22 150.23L200.62 150.67L200.8 150.91L201 151.14L201.16 151.38L201.48 151.88L201.76 152.41L201.89 152.68L202.01 152.96L202.2 153.52L202.28 153.81L202.35 154.09L202.41 154.4L202.46 154.7L202.48 155L202.5 155.3L202.52 155.61L202.52 184.75L202.48 185.37L202.46 185.67L202.41 185.96L202.35 186.26L202.28 186.55L202.2 186.84L202.1 187.13L202.01 187.41L201.89 187.68L201.76 187.95L201.62 188.22L201.48 188.48L201.16 188.98L201 189.23L200.62 189.69L200.42 189.92L200.22 190.13L200 190.34L199.78 190.54L199.55 190.72L199.31 190.91L198.82 191.24L198.56 191.39L198.3 191.54L198.04 191.67L197.76 191.81L197.21 192.02L196.93 192.11L196.64 192.19L196.35 192.26L196.05 192.32L195.45 192.4L195.16 192.42L189.73 192.42L189.73 206.24L189.72 206.54L189.7 206.84L189.67 207.15L189.63 207.45L189.57 207.74L189.5 208.04L189.42 208.32L189.31 208.61L189.22 208.88L189.11 209.16L188.98 209.43L188.7 209.95L188.54 210.22L188.38 210.46L188.21 210.7L188.02 210.95L187.83 211.17L187.63 211.39L187.43 211.6L187.22 211.82L187 212.01L186.76 212.2L186.28 212.56L185.78 212.88L185.51 213.02L185.26 213.16L184.98 213.28L184.7 213.4L184.14 213.6L183.85 213.68L183.56 213.75L182.96 213.85L182.66 213.88L182.37 213.9L182.06 213.91L170.29 213.91L169.99 213.9L169.68 213.88L169.38 213.85L169.08 213.8L168.79 213.75L168.5 213.68L168.21 213.6L167.93 213.5L167.64 213.4L167.37 213.28L167.09 213.16L166.57 212.88L166.06 212.56L165.59 212.2L165.13 211.82L164.72 211.39L164.52 211.17L164.32 210.95L163.96 210.46L163.81 210.22L163.65 209.95L163.37 209.43L163.25 209.16L163.13 208.88L163.03 208.61L162.94 208.32L162.86 208.04L162.79 207.74L162.72 207.45L162.68 207.15L162.65 206.84L162.63 206.54L162.62 206.24L162.62 192.42L93.07 192.42L93.07 206.24L93.06 206.54L93.05 206.84L92.97 207.45L92.91 207.74L92.84 208.04L92.76 208.32L92.67 208.61L92.45 209.16L92.32 209.43L92.19 209.7L91.89 210.22L91.72 210.46L91.55 210.7L91.37 210.95L91.17 211.17L90.97 211.39L90.77 211.6L90.55 211.82L90.33 212.01L90.1 212.2L89.62 212.56L89.12 212.88L88.6 213.16L88.32 213.28L88.04 213.4L87.48 213.6L87.2 213.68L86.91 213.75L86.3 213.85L86 213.88L85.71 213.9L85.4 213.91L73.64 213.91L73.33 213.9L73.03 213.88L72.72 213.85L72.43 213.8L72.13 213.75L71.84 213.68L71.55 213.6L71.26 213.5L70.98 213.4L70.45 213.16L70.18 213.02L69.91 212.88L69.66 212.72L69.41 212.56L69.17 212.38L68.94 212.2L68.48 211.82L68.06 211.39L67.86 211.17L67.66 210.95L67.49 210.7L67.32 210.46L67.14 210.22L66.85 209.7L66.71 209.43L66.59 209.16L66.47 208.88L66.37 208.61L66.28 208.32L66.2 208.04L66.13 207.74L66.07 207.45L66.02 207.15L65.99 206.84L65.97 206.54L65.97 192.42L60.55 192.42L60.25 192.4L59.93 192.37L59.64 192.32L59.34 192.26L59.05 192.19L58.76 192.11L58.47 192.02L58.19 191.91L57.93 191.81L57.39 191.54L56.87 191.24L56.63 191.08L56.38 190.91L55.92 190.54L55.69 190.34L55.27 189.92L54.88 189.46L54.7 189.23L54.36 188.73L54.07 188.22L53.92 187.95L53.68 187.41L53.58 187.13L53.49 186.84L53.42 186.55L53.34 186.26L53.28 185.96L53.23 185.67L53.2 185.37L53.19 185.06L53.19 155.3L53.2 155L53.23 154.7L53.28 154.4L53.34 154.09L53.42 153.81L53.49 153.52L53.58 153.24L53.68 152.96L53.8 152.68L53.92 152.41L54.07 152.14L54.21 151.88L54.36 151.64L54.53 151.38L54.7 151.14L54.88 150.91L55.08 150.67L55.27 150.45L55.48 150.23L55.69 150.04L55.92 149.83L56.38 149.46L56.63 149.28L56.87 149.12L57.13 148.96L57.39 148.82L57.93 148.55L58.19 148.45L58.47 148.34L58.76 148.24L59.05 148.17L59.34 148.1L59.64 148.03L59.93 148L60.25 147.96L60.55 147.95L60.86 147.94L66.08 147.94L66.2 147.93L66.31 147.9L66.42 147.89L66.64 147.84L66.77 147.81L66.88 147.77L66.99 147.72L67.1 147.67L67.21 147.61L67.32 147.57L67.43 147.51L67.64 147.37L67.73 147.3L67.85 147.23L67.94 147.15L68.04 147.06L68.14 146.98L68.23 146.88L68.42 146.71L68.59 146.51L68.67 146.41L68.83 146.21L68.92 146.1L68.99 146L69.12 145.78L69.18 145.67L69.24 145.55L69.37 145.33L69.41 145.21L69.46 145.1L69.51 144.98L69.54 144.87L76.71 113.68L76.79 113.36L76.88 113.06L76.97 112.77L77.2 112.19L77.33 111.9L77.61 111.36L77.76 111.09L77.91 110.83L78.08 110.57L78.27 110.32L78.44 110.08L78.63 109.84L79.02 109.38L79.23 109.17L79.67 108.75L80.14 108.37L80.37 108.19L80.61 108.02L80.87 107.86L81.38 107.56L81.64 107.42L81.91 107.28L82.18 107.16L82.46 107.06L82.74 106.95L83.02 106.86L83.31 106.78L83.6 106.71L83.89 106.65L84.48 106.56L84.78 106.54L85.1 106.51L170.6 106.51L170.9 106.54L171.21 106.56ZM173.2 160.06L171.95 160.5L170.77 161.1L169.68 161.84L168.69 162.69L167.84 163.69L167.09 164.78L166.49 165.95L166.05 167.21L165.78 168.54L165.69 169.93L165.78 171.31L166.05 172.64L166.49 173.89L167.09 175.07L167.84 176.16L168.69 177.15L169.68 178.02L170.77 178.75L171.95 179.35L173.2 179.79L174.54 180.06L175.93 180.16L177.31 180.06L178.63 179.79L179.89 179.35L181.07 178.75L182.16 178.02L183.15 177.15L184.01 176.16L184.75 175.07L185.34 173.89L185.78 172.64L186.06 171.31L186.15 169.93L186.06 168.54L185.78 167.21L185.34 165.95L184.75 164.78L184.01 163.69L183.15 162.69L182.16 161.84L181.07 161.1L179.89 160.5L178.63 160.06L177.31 159.8L175.93 159.7L174.54 159.8L173.2 160.06ZM76.54 160.06L75.29 160.5L74.11 161.1L73.02 161.84L72.05 162.69L71.18 163.69L70.43 164.78L69.84 165.95L69.39 167.21L69.12 168.54L69.03 169.93L69.12 171.31L69.39 172.64L69.84 173.89L70.43 175.07L71.18 176.16L72.05 177.15L73.02 178.02L74.11 178.75L75.29 179.35L76.54 179.79L77.88 180.06L79.27 180.16L80.65 180.06L81.97 179.79L83.23 179.35L84.41 178.75L85.49 178.02L86.49 177.15L87.36 176.16L88.09 175.07L88.68 173.89L89.12 172.64L89.39 171.31L89.49 169.93L89.39 168.54L89.12 167.21L88.68 165.95L88.09 164.78L87.36 163.69L86.49 162.69L85.49 161.84L84.41 161.1L83.23 160.5L81.97 160.06L80.65 159.8L79.27 159.7L77.88 159.8L76.54 160.06ZM79.27 150.49L175.4 150.49L168.25 117.25L86.43 117.25L79.27 150.49Z" id="d3zjMWmj80"></path></defs><g><g><use xlink:href="#b5Uad79AP" opacity="1" fill="#ffffff" fill-opacity="1"></use><g><use xlink:href="#b5Uad79AP" opacity="1" fill-opacity="0" stroke="#716517" stroke-width="35" stroke-opacity="1"></use></g></g><g><use xlink:href="#bRTlyugxC" opacity="1" fill="#716517" fill-opacity="1"></use><g><use xlink:href="#bRTlyugxC" opacity="1" fill-opacity="0" stroke="#000000" stroke-width="1" stroke-opacity="0"></use></g></g><g><use xlink:href="#d3l3UAlJXq" opacity="1" fill="#000000" fill-opacity="0"></use><g><use xlink:href="#d3l3UAlJXq" opacity="1" fill-opacity="0" stroke="#e6cf36" stroke-width="35" stroke-opacity="1"></use></g></g><g><use xlink:href="#e9pEYCGES" opacity="1" fill="#e6cf36" fill-opacity="1"></use><g><use xlink:href="#e9pEYCGES" opacity="1" fill-opacity="0" stroke="#000000" stroke-width="1" stroke-opacity="0"></use></g></g><g><use xlink:href="#e2BXjb1q7A" opacity="1" fill="#716517" fill-opacity="1"></use><g><use xlink:href="#e2BXjb1q7A" opacity="1" fill-opacity="0" stroke="#510b0b" stroke-width="1" stroke-opacity="0"></use></g></g><g><use xlink:href="#d3zjMWmj80" opacity="1" fill="#e6cf36" fill-opacity="1"></use><g><use xlink:href="#d3zjMWmj80" opacity="1" fill-opacity="0" stroke="#000000" stroke-width="1" stroke-opacity="0"></use></g></g></g></svg>