<svg xmlns="http://www.w3.org/2000/svg" xmlns:xlink="http://www.w3.org/1999/xlink" version="1.1" x="0px" y="0px" viewBox="0 0 100 125" style="enable-background:new 0 0 100 100;" xml:space="preserve"><style type="text/css">
	.st0{fill:none;}
	.st1{fill:#FFFFFF;}
</style><path d="M50,12.3c-14.1,0-25.5,11.4-25.5,25.6c0,3.7,0.8,7.1,2.1,10.3l22,42.7c0.6,1.2,2.2,1.2,2.8,0l22-42.7  c1.4-3.1,2.1-6.6,2.1-10.3C75.5,23.7,64.1,12.3,50,12.3z M50,58.4c-11.4,0-20.7-9.3-20.7-20.7S38.6,17,50,17s20.7,9.3,20.7,20.7  S61.4,58.4,50,58.4z"/><path d="M63.1,34.8h-1c-0.3,0-0.7-0.3-0.7-0.6L60,28.1c-0.2-0.8-0.9-1.4-1.7-1.4H41.7c-0.8,0-1.5,0.6-1.7,1.4l-1.4,6.1  c-0.1,0.3-0.4,0.6-0.7,0.6h-1c-0.8,0-1.5,0.7-1.5,1.5V42c0,0.8,0.7,1.5,1.5,1.5h1v2.7c0,0.8,0.7,1.5,1.5,1.5h2.3  c0.8,0,1.5-0.7,1.5-1.5v-2.7h13.6v2.7c0,0.8,0.7,1.5,1.5,1.5h2.3c0.8,0,1.5-0.7,1.5-1.5v-2.7h1c0.8,0,1.5-0.7,1.5-1.5v-5.7  C64.6,35.5,63.9,34.8,63.1,34.8z M40.5,41.1c-1.1,0-2-0.9-2-2s0.9-2,2-2s2,0.9,2,2S41.6,41.1,40.5,41.1z M40.5,35.3l1.4-6.5h16  l1.4,6.5H40.5z M59.4,41.1c-1.1,0-2-0.9-2-2s0.9-2,2-2c1.1,0,2,0.9,2,2S60.5,41.1,59.4,41.1z"/><text x="0" y="115" fill="#000000" font-size="5px" font-weight="bold" font-family="'Helvetica Neue', Helvetica, Arial-Unicode, Arial, Sans-serif">Created by EliRatus</text><text x="0" y="120" fill="#000000" font-size="5px" font-weight="bold" font-family="'Helvetica Neue', Helvetica, Arial-Unicode, Arial, Sans-serif">from the Noun Project</text></svg>