<?xml version="1.0" encoding="UTF-8" standalone="no"?>
<!DOCTYPE svg PUBLIC "-//W3C//DTD SVG 1.1//EN" "http://www.w3.org/Graphics/SVG/1.1/DTD/svg11.dtd">
<svg version="1.1" xmlns="http://www.w3.org/2000/svg" xmlns:xlink="http://www.w3.org/1999/xlink" preserveAspectRatio="xMidYMid meet" viewBox="-0.125 -0.125 210.6879432624114 210.68794326241138" width="183.69" height="183.69"><defs><path d="M197.06 105.22C197.06 155.91 155.91 197.06 105.22 197.06C54.53 197.06 13.38 155.91 13.38 105.22C13.38 54.53 54.53 13.38 105.22 13.38C155.91 13.38 197.06 54.53 197.06 105.22Z" id="b62FqaFa1r"></path><path d="M140.99 59.23L141.24 59.25L141.49 59.28L141.74 59.33L141.98 59.38L142.22 59.44L142.46 59.51L142.7 59.59L142.93 59.67L143.16 59.77L143.39 59.87L143.62 59.98L143.84 60.1L144.05 60.22L144.26 60.35L144.47 60.49L144.68 60.64L144.88 60.79L145.07 60.95L145.26 61.12L145.45 61.29L145.63 61.47L145.8 61.66L145.97 61.85L146.13 62.05L146.29 62.25L146.44 62.46L146.59 62.67L146.73 62.89L146.86 63.12L146.99 63.34L147.11 63.58L147.22 63.81L147.32 64.06L147.42 64.3L147.51 64.55L147.6 64.8L147.67 65.06L147.74 65.32L153.73 91.97L153.73 92.07L153.74 92.16L153.75 92.26L153.78 92.36L153.8 92.46L153.83 92.55L153.87 92.65L153.91 92.74L153.96 92.84L154.01 92.93L154.07 93.02L154.13 93.11L154.19 93.2L154.26 93.29L154.33 93.37L154.41 93.46L154.49 93.54L154.57 93.62L154.65 93.69L154.74 93.77L154.83 93.84L154.92 93.91L155.02 93.98L155.11 94.04L155.21 94.11L155.31 94.16L155.41 94.22L155.51 94.27L155.61 94.32L155.71 94.36L155.81 94.4L155.91 94.44L156.02 94.48L156.12 94.5L156.22 94.53L156.32 94.55L156.42 94.57L156.52 94.58L156.62 94.59L156.72 94.59L160.99 94.59L161.25 94.59L161.5 94.61L161.75 94.64L162 94.68L162.25 94.73L162.49 94.79L162.73 94.86L162.97 94.93L163.21 95.02L163.44 95.12L163.66 95.23L163.89 95.34L164.1 95.47L164.32 95.6L164.52 95.74L164.73 95.89L164.92 96.04L165.12 96.21L165.3 96.38L165.48 96.55L165.65 96.74L165.82 96.93L165.98 97.12L166.13 97.32L166.28 97.53L166.41 97.74L166.54 97.96L166.67 98.18L166.78 98.41L166.88 98.64L166.98 98.88L167.07 99.12L167.14 99.36L167.21 99.61L167.27 99.86L167.32 100.11L167.35 100.36L167.38 100.62L167.4 100.88L167.4 101.14L167.4 126.04L167.4 126.3L167.38 126.56L167.35 126.82L167.32 127.07L167.27 127.32L167.21 127.57L167.14 127.82L167.07 128.06L166.98 128.3L166.88 128.54L166.78 128.77L166.67 129L166.54 129.22L166.41 129.44L166.28 129.65L166.13 129.86L165.98 130.06L165.82 130.25L165.65 130.44L165.48 130.63L165.3 130.8L165.12 130.97L164.92 131.14L164.73 131.29L164.52 131.44L164.32 131.58L164.1 131.71L163.89 131.84L163.66 131.95L163.44 132.06L163.21 132.16L162.97 132.25L162.73 132.32L162.49 132.39L162.25 132.45L162 132.5L161.75 132.54L161.5 132.57L161.25 132.59L160.99 132.59L156.72 132.59L156.72 144.39L156.71 144.65L156.7 144.91L156.67 145.16L156.63 145.42L156.58 145.67L156.52 145.92L156.46 146.17L156.38 146.41L156.29 146.65L156.2 146.88L156.09 147.11L155.98 147.34L155.86 147.56L155.73 147.78L155.59 147.99L155.45 148.2L155.29 148.4L155.13 148.6L154.97 148.79L154.79 148.97L154.62 149.15L154.43 149.32L154.24 149.48L154.04 149.64L153.84 149.79L153.63 149.93L153.42 150.06L153.2 150.18L152.98 150.3L152.75 150.41L152.52 150.5L152.29 150.59L152.05 150.67L151.81 150.74L151.56 150.8L151.32 150.85L151.07 150.89L150.82 150.91L150.56 150.93L150.31 150.94L140.48 150.94L140.22 150.93L139.97 150.91L139.72 150.89L139.47 150.85L139.22 150.8L138.97 150.74L138.73 150.67L138.5 150.59L138.26 150.5L138.03 150.41L137.81 150.3L137.58 150.18L137.37 150.06L137.15 149.93L136.94 149.79L136.74 149.64L136.54 149.48L136.35 149.32L136.17 149.15L135.99 148.97L135.82 148.79L135.65 148.6L135.49 148.4L135.34 148.2L135.19 147.99L135.05 147.78L134.92 147.56L134.8 147.34L134.69 147.11L134.59 146.88L134.49 146.65L134.4 146.41L134.33 146.17L134.26 145.92L134.2 145.67L134.15 145.42L134.11 145.16L134.09 144.91L134.07 144.65L134.06 144.39L134.06 132.59L75.94 132.59L75.94 144.39L75.93 144.65L75.91 144.91L75.89 145.16L75.85 145.42L75.8 145.67L75.74 145.92L75.67 146.17L75.6 146.41L75.51 146.65L75.41 146.88L75.31 147.11L75.2 147.34L75.08 147.56L74.95 147.78L74.81 147.99L74.66 148.2L74.51 148.4L74.35 148.6L74.18 148.79L74.01 148.97L73.83 149.15L73.65 149.32L73.46 149.48L73.26 149.64L73.06 149.79L72.85 149.93L72.63 150.06L72.42 150.18L72.19 150.3L71.97 150.41L71.74 150.5L71.5 150.59L71.27 150.67L71.03 150.74L70.78 150.8L70.53 150.85L70.28 150.89L70.03 150.91L69.78 150.93L69.52 150.94L59.69 150.94L59.44 150.93L59.18 150.91L58.93 150.89L58.68 150.85L58.44 150.8L58.19 150.74L57.95 150.67L57.71 150.59L57.48 150.5L57.25 150.41L57.02 150.3L56.8 150.18L56.58 150.06L56.37 149.93L56.16 149.79L55.96 149.64L55.76 149.48L55.57 149.32L55.38 149.15L55.21 148.97L55.03 148.79L54.87 148.6L54.71 148.4L54.55 148.2L54.41 147.99L54.27 147.78L54.14 147.56L54.02 147.34L53.91 147.11L53.8 146.88L53.71 146.65L53.62 146.41L53.54 146.17L53.48 145.92L53.42 145.67L53.37 145.42L53.33 145.16L53.3 144.91L53.29 144.65L53.28 144.39L53.28 132.59L49.01 132.59L48.75 132.59L48.5 132.57L48.25 132.54L48 132.5L47.75 132.45L47.51 132.39L47.27 132.32L47.03 132.25L46.79 132.16L46.56 132.06L46.34 131.95L46.11 131.84L45.9 131.71L45.68 131.58L45.48 131.44L45.27 131.29L45.08 131.14L44.88 130.97L44.7 130.8L44.52 130.63L44.35 130.44L44.18 130.25L44.02 130.06L43.87 129.86L43.72 129.65L43.59 129.44L43.46 129.22L43.33 129L43.22 128.77L43.12 128.54L43.02 128.3L42.93 128.06L42.86 127.82L42.79 127.57L42.73 127.32L42.68 127.07L42.65 126.82L42.62 126.56L42.6 126.3L42.6 126.04L42.6 101.14L42.6 100.88L42.62 100.62L42.65 100.36L42.68 100.11L42.73 99.86L42.79 99.61L42.86 99.36L42.93 99.12L43.02 98.88L43.12 98.64L43.22 98.41L43.33 98.18L43.46 97.96L43.59 97.74L43.72 97.53L43.87 97.32L44.02 97.12L44.18 96.93L44.35 96.74L44.52 96.55L44.7 96.38L44.88 96.21L45.08 96.04L45.27 95.89L45.48 95.74L45.68 95.6L45.9 95.47L46.11 95.34L46.34 95.23L46.56 95.12L46.79 95.02L47.03 94.93L47.27 94.86L47.51 94.79L47.75 94.73L48 94.68L48.25 94.64L48.5 94.61L48.75 94.59L49.01 94.59L53.28 94.59L53.38 94.59L53.47 94.58L53.57 94.57L53.67 94.55L53.76 94.53L53.86 94.5L53.95 94.48L54.04 94.44L54.14 94.4L54.23 94.36L54.32 94.32L54.41 94.27L54.5 94.22L54.59 94.16L54.68 94.11L54.77 94.04L54.85 93.98L54.93 93.91L55.02 93.84L55.1 93.77L55.18 93.69L55.26 93.62L55.33 93.54L55.41 93.46L55.48 93.37L55.55 93.29L55.62 93.2L55.68 93.11L55.74 93.02L55.81 92.93L55.87 92.84L55.92 92.74L55.98 92.65L56.03 92.55L56.08 92.46L56.12 92.36L56.16 92.26L56.2 92.16L56.24 92.07L56.27 91.97L62.26 65.32L62.33 65.06L62.4 64.8L62.49 64.55L62.58 64.3L62.68 64.06L62.78 63.81L62.89 63.58L63.01 63.34L63.14 63.12L63.27 62.89L63.41 62.67L63.56 62.46L63.71 62.25L63.87 62.05L64.03 61.85L64.2 61.66L64.37 61.47L64.55 61.29L64.74 61.12L64.93 60.95L65.12 60.79L65.32 60.64L65.53 60.49L65.74 60.35L65.95 60.22L66.16 60.1L66.38 59.98L66.61 59.87L66.84 59.77L67.07 59.67L67.3 59.59L67.54 59.51L67.78 59.44L68.02 59.38L68.26 59.33L68.51 59.28L68.76 59.25L69.01 59.23L69.27 59.21L69.52 59.21L140.48 59.21L140.73 59.21L140.99 59.23ZM142.48 105.08L141.26 105.61L140.14 106.33L139.14 107.2L138.28 108.22L137.59 109.37L137.07 110.62L136.74 111.96L136.63 113.37L136.74 114.78L137.07 116.13L137.59 117.38L138.28 118.52L139.14 119.54L140.14 120.42L141.26 121.13L142.48 121.66L143.8 121.99L145.18 122.11L146.56 121.99L147.87 121.66L149.1 121.13L150.22 120.42L151.22 119.54L152.07 118.52L152.77 117.38L153.29 116.13L153.61 114.78L153.73 113.37L153.61 111.96L153.29 110.62L152.77 109.37L152.07 108.22L151.22 107.2L150.22 106.33L149.1 105.61L147.87 105.08L146.56 104.75L145.18 104.64L143.8 104.75L142.48 105.08ZM61.7 105.08L60.47 105.61L59.35 106.33L58.36 107.2L57.5 108.22L56.8 109.37L56.28 110.62L55.96 111.96L55.85 113.37L55.96 114.78L56.28 116.13L56.8 117.38L57.5 118.52L58.36 119.54L59.35 120.42L60.47 121.13L61.7 121.66L63.01 121.99L64.39 122.11L65.78 121.99L67.09 121.66L68.31 121.13L69.43 120.42L70.43 119.54L71.29 118.52L71.99 117.38L72.51 116.13L72.83 114.78L72.94 113.37L72.83 111.96L72.51 110.62L71.99 109.37L71.29 108.22L70.43 107.2L69.43 106.33L68.31 105.61L67.09 105.08L65.78 104.75L64.39 104.64L63.01 104.75L61.7 105.08ZM64.39 96.77L144.75 96.77L138.77 68.38L70.38 68.38L64.39 96.77Z" id="ceA0Rlr8u"></path></defs><g><g><g><use xlink:href="#b62FqaFa1r" opacity="1" fill-opacity="0" stroke="#000000" stroke-width="27" stroke-opacity="1"></use></g></g><g><use xlink:href="#ceA0Rlr8u" opacity="1" fill="#000000" fill-opacity="1"></use><g><use xlink:href="#ceA0Rlr8u" opacity="1" fill-opacity="0" stroke="#000000" stroke-width="1" stroke-opacity="0"></use></g></g></g></svg>