<?xml version="1.0" encoding="UTF-8" standalone="no"?>
<!DOCTYPE svg PUBLIC "-//W3C//DTD SVG 1.1//EN" "http://www.w3.org/Graphics/SVG/1.1/DTD/svg11.dtd">
<svg version="1.1" xmlns="http://www.w3.org/2000/svg" xmlns:xlink="http://www.w3.org/1999/xlink" preserveAspectRatio="xMidYMid meet" viewBox="2.6516923076921444 -3.944512820512891 401.31199999999995 443.42748717948723" width="80" height="88.48"><defs><path d="M282.66 147.23L284.91 147.42L287.15 147.69L289.36 148.03L291.55 148.44L293.72 148.93L295.86 149.48L297.97 150.11L300.05 150.8L302.11 151.56L304.13 152.38L306.12 153.27L308.08 154.22L310 155.23L311.88 156.3L313.73 157.42L315.54 158.61L317.31 159.85L319.04 161.15L320.73 162.5L322.38 163.91L323.97 165.36L325.53 166.87L327.03 168.42L328.49 170.02L329.9 171.67L331.26 173.36L332.56 175.1L333.81 176.88L335.01 178.7L336.15 180.56L337.23 182.46L338.26 184.4L339.22 186.37L340.13 188.38L340.97 190.42L341.75 192.49L342.46 194.6L343.11 196.74L382.02 196.74L382.82 196.75L383.61 196.8L384.39 196.88L385.16 196.99L385.92 197.13L386.66 197.3L387.4 197.5L388.11 197.72L388.82 197.98L389.51 198.26L390.18 198.56L390.84 198.89L391.48 199.25L392.11 199.63L392.71 200.03L393.3 200.45L393.87 200.9L394.42 201.37L394.95 201.86L395.46 202.37L395.95 202.9L396.42 203.44L396.86 204.01L397.28 204.59L397.68 205.19L398.05 205.8L398.4 206.43L398.73 207.07L399.03 207.73L399.3 208.4L399.55 209.08L399.76 209.78L399.95 210.48L400.12 211.2L400.25 211.93L400.35 212.66L400.42 213.4L400.46 214.16L400.47 214.91L400.45 215.68L400.44 216.48L400.39 217.27L400.31 218.05L400.2 218.82L400.06 219.58L399.89 220.33L399.69 221.06L399.46 221.78L399.21 222.48L398.93 223.18L398.63 223.85L398.3 224.51L397.94 225.16L397.56 225.79L397.16 226.4L396.73 226.99L396.29 227.57L395.82 228.13L395.33 228.66L394.82 229.18L394.29 229.68L393.75 230.16L393.18 230.62L392.6 231.05L392 231.46L391.39 231.85L390.76 232.22L390.12 232.56L389.46 232.88L388.79 233.18L388.1 233.44L387.41 233.69L386.7 233.9L385.99 234.09L385.26 234.25L384.53 234.38L383.78 234.49L383.03 234.56L382.27 234.61L381.51 234.62L342.6 234.62L341.95 236.76L341.23 238.87L340.46 240.94L339.61 242.98L338.71 244.99L337.74 246.96L336.72 248.9L335.64 250.8L334.5 252.66L333.3 254.48L332.05 256.26L330.74 258L329.39 259.69L327.98 261.34L326.52 262.94L325.02 264.49L323.46 266L321.86 267.45L320.22 268.86L318.53 270.21L316.8 271.51L315.03 272.75L313.22 273.93L311.37 275.06L309.49 276.13L307.56 277.14L305.61 278.09L303.62 278.98L301.59 279.8L299.54 280.56L297.46 281.25L295.34 281.87L293.2 282.43L291.04 282.92L288.85 283.33L286.64 283.67L284.4 283.94L282.14 284.13L279.87 284.25L277.57 284.29L275.28 284.25L273 284.13L270.74 283.94L268.51 283.67L266.29 283.33L264.1 282.92L261.94 282.43L259.8 281.87L257.69 281.25L255.6 280.56L253.55 279.8L251.53 278.98L249.54 278.09L247.58 277.14L245.66 276.13L243.77 275.06L241.92 273.93L240.11 272.75L238.34 271.51L236.61 270.21L234.92 268.86L233.28 267.45L231.68 266L230.13 264.49L228.62 262.94L227.16 261.34L225.76 259.69L224.4 258L223.09 256.26L221.84 254.48L220.65 252.66L219.51 250.8L218.42 248.9L217.4 246.96L216.43 244.99L215.53 242.98L214.69 240.94L213.91 238.87L213.2 236.76L212.55 234.62L22.6 234.62L21.79 234.61L21 234.56L20.22 234.48L19.45 234.37L18.69 234.23L17.95 234.06L17.22 233.86L16.5 233.64L15.79 233.38L15.1 233.1L14.42 232.8L13.76 232.47L13.12 232.11L12.49 231.73L11.88 231.33L11.28 230.9L10.71 230.46L10.15 229.99L9.61 229.5L9.09 228.99L8.59 228.46L8.12 227.92L7.66 227.35L7.22 226.77L6.81 226.17L6.42 225.56L6.05 224.93L5.71 224.29L5.39 223.63L5.1 222.96L4.83 222.28L4.59 221.58L4.37 220.88L4.19 220.16L4.02 219.43L3.89 218.7L3.79 217.95L3.71 217.2L3.67 216.44L3.65 215.68L3.67 214.88L3.72 214.09L3.8 213.31L3.91 212.54L4.05 211.78L4.22 211.03L4.41 210.3L4.64 209.58L4.89 208.87L5.17 208.18L5.48 207.51L5.81 206.85L6.16 206.2L6.54 205.57L6.95 204.96L7.37 204.37L7.82 203.79L8.29 203.23L8.78 202.69L9.28 202.18L9.81 201.68L10.36 201.2L10.92 200.74L11.5 200.31L12.1 199.89L12.72 199.5L13.34 199.14L13.99 198.8L14.65 198.48L15.32 198.18L16 197.92L16.69 197.67L17.4 197.46L18.12 197.27L18.84 197.11L19.58 196.98L20.32 196.87L21.07 196.8L21.83 196.75L22.6 196.74L212.55 196.74L213.23 194.64L213.98 192.56L214.79 190.52L215.67 188.5L216.6 186.52L217.6 184.56L218.65 182.64L219.76 180.76L220.92 178.91L222.14 177.1L223.41 175.32L224.74 173.59L226.11 171.9L227.54 170.25L229.01 168.65L230.53 167.09L232.1 165.58L233.71 164.12L235.36 162.7L237.06 161.34L238.8 160.04L240.58 158.78L242.4 157.58L244.25 156.44L246.14 155.36L248.07 154.34L250.03 153.38L252.03 152.48L254.05 151.64L256.11 150.87L258.19 150.17L260.31 149.53L262.45 148.97L264.61 148.47L266.8 148.05L269.02 147.7L271.25 147.43L273.51 147.23L275.79 147.11L278.08 147.07L280.38 147.11L282.66 147.23ZM275.37 185.07L274.04 185.2L272.73 185.39L271.45 185.63L270.18 185.92L268.94 186.26L267.72 186.64L266.53 187.08L265.36 187.56L264.22 188.08L263.11 188.65L262.02 189.26L260.97 189.92L259.95 190.62L258.96 191.35L258 192.13L257.08 192.94L256.2 193.79L255.34 194.68L254.53 195.6L253.76 196.56L253.02 197.55L252.32 198.57L251.67 199.62L251.06 200.7L250.49 201.82L249.96 202.96L249.48 204.12L249.05 205.32L248.66 206.53L248.32 207.78L248.03 209.04L247.8 210.33L247.61 211.64L247.47 212.97L247.39 214.31L247.36 215.68L247.39 217.05L247.48 218.39L247.63 219.72L247.83 221.03L248.08 222.32L248.39 223.58L248.75 224.83L249.16 226.04L249.61 227.24L250.12 228.4L250.67 229.54L251.27 230.66L251.91 231.74L252.59 232.79L253.31 233.81L254.07 234.8L254.87 235.76L255.71 236.68L256.58 237.57L257.49 238.42L258.42 239.23L259.39 240.01L260.39 240.74L261.42 241.44L262.48 242.09L263.56 242.71L264.67 243.28L265.8 243.8L266.95 244.28L268.12 244.72L269.31 245.1L270.52 245.44L271.75 245.73L272.99 245.97L274.25 246.16L275.52 246.29L276.79 246.37L278.08 246.4L279.37 246.37L280.65 246.29L281.92 246.16L283.18 245.97L284.42 245.73L285.64 245.44L286.85 245.1L288.04 244.72L289.22 244.28L290.37 243.8L291.5 243.28L292.61 242.71L293.69 242.09L294.74 241.44L295.77 240.74L296.77 240.01L297.74 239.23L298.68 238.42L299.59 237.57L300.46 236.68L301.3 235.76L302.1 234.8L302.86 233.81L303.58 232.79L304.26 231.74L304.9 230.66L305.5 229.54L306.05 228.4L306.55 227.24L307.01 226.04L307.42 224.83L307.78 223.58L308.09 222.32L308.34 221.03L308.54 219.72L308.69 218.39L308.77 217.05L308.8 215.68L308.78 214.31L308.69 212.97L308.56 211.64L308.37 210.33L308.13 209.04L307.84 207.78L307.51 206.53L307.12 205.32L306.69 204.12L306.21 202.96L305.68 201.82L305.11 200.7L304.5 199.62L303.84 198.57L303.15 197.55L302.41 196.56L301.64 195.6L300.82 194.68L299.97 193.79L299.08 192.94L298.16 192.13L297.21 191.35L296.22 190.62L295.2 189.92L294.14 189.26L293.06 188.65L291.95 188.08L290.81 187.56L289.64 187.08L288.45 186.64L287.23 186.26L285.99 185.92L284.72 185.63L283.43 185.39L282.13 185.2L280.8 185.07L279.45 184.99L278.08 184.96L276.72 184.99L275.37 185.07Z" id="a7pWvKKQIw"></path><path d="M132.64 -2.79L134.9 -2.6L137.13 -2.33L139.35 -1.99L141.54 -1.57L143.7 -1.09L145.84 -0.53L147.95 0.09L150.04 0.78L152.09 1.54L154.11 2.36L156.1 3.25L158.06 4.2L159.98 5.21L161.87 6.28L163.72 7.41L165.53 8.6L167.3 9.84L169.03 11.14L170.72 12.49L172.36 13.89L173.96 15.35L175.51 16.85L177.02 18.41L178.48 20.01L179.88 21.65L181.24 23.35L182.54 25.08L183.8 26.86L184.99 28.68L186.13 30.54L187.22 32.44L188.24 34.38L189.21 36.35L190.11 38.36L190.95 40.4L191.73 42.48L192.44 44.58L193.09 46.72L382.02 46.72L382.82 46.73L383.61 46.78L384.39 46.86L385.16 46.96L385.92 47.09L386.67 47.25L387.4 47.44L388.12 47.66L388.82 47.9L389.52 48.17L390.19 48.46L390.85 48.78L391.5 49.12L392.13 49.49L392.74 49.88L393.33 50.29L393.91 50.73L394.47 51.18L395 51.66L395.52 52.16L396.02 52.68L396.5 53.22L396.96 53.77L397.39 54.35L397.8 54.94L398.19 55.56L398.56 56.18L398.9 56.83L399.22 57.49L399.52 58.17L399.78 58.86L400.03 59.56L400.24 60.28L400.43 61.02L400.59 61.76L400.72 62.52L400.83 63.29L400.9 64.07L400.95 64.86L400.96 65.66L400.95 66.46L400.9 67.26L400.82 68.04L400.71 68.81L400.57 69.56L400.4 70.31L400.2 71.04L399.98 71.76L399.72 72.47L399.44 73.16L399.14 73.84L398.81 74.5L398.45 75.14L398.07 75.77L397.67 76.38L397.24 76.98L396.8 77.55L396.33 78.11L395.84 78.65L395.33 79.17L394.8 79.67L394.26 80.14L393.69 80.6L393.11 81.04L392.51 81.45L391.9 81.84L391.27 82.2L390.63 82.55L389.97 82.87L389.3 83.16L388.62 83.43L387.92 83.67L387.22 83.89L386.5 84.07L385.77 84.23L385.04 84.37L384.29 84.47L383.54 84.55L382.78 84.59L382.02 84.61L193.09 84.61L192.44 86.74L191.73 88.85L190.95 90.92L190.11 92.97L189.21 94.97L188.24 96.95L187.22 98.88L186.13 100.78L184.99 102.64L183.8 104.46L182.54 106.24L181.24 107.98L179.88 109.67L178.48 111.32L177.02 112.92L175.51 114.48L173.96 115.98L172.36 117.44L170.72 118.84L169.03 120.19L167.3 121.49L165.53 122.73L163.72 123.92L161.87 125.05L159.98 126.12L158.06 127.13L156.1 128.08L154.11 128.96L152.09 129.79L150.04 130.54L147.95 131.23L145.84 131.86L143.7 132.41L141.54 132.9L139.35 133.31L137.13 133.66L134.9 133.92L132.64 134.12L130.36 134.23L128.07 134.27L125.77 134.23L123.5 134.12L121.24 133.92L119 133.66L116.79 133.31L114.6 132.9L112.43 132.41L110.3 131.86L108.18 131.23L106.1 130.54L104.05 129.79L102.02 128.96L100.03 128.08L98.08 127.13L96.15 126.12L94.27 125.05L92.42 123.92L90.61 122.73L88.84 121.49L87.11 120.19L85.42 118.84L83.78 117.44L82.18 115.98L80.62 114.48L79.12 112.92L77.66 111.32L76.25 109.67L74.9 107.98L73.59 106.24L72.34 104.46L71.14 102.64L70 100.78L68.92 98.88L67.89 96.95L66.93 94.97L66.03 92.97L65.18 90.92L64.41 88.85L63.69 86.74L63.04 84.61L22.6 84.61L21.79 84.59L21 84.55L20.22 84.47L19.45 84.37L18.69 84.23L17.95 84.07L17.22 83.89L16.5 83.67L15.79 83.43L15.1 83.16L14.42 82.87L13.76 82.55L13.12 82.2L12.49 81.84L11.88 81.45L11.28 81.04L10.71 80.6L10.15 80.14L9.61 79.67L9.09 79.17L8.59 78.65L8.12 78.11L7.66 77.55L7.22 76.98L6.81 76.38L6.42 75.77L6.05 75.14L5.71 74.5L5.39 73.84L5.1 73.16L4.83 72.47L4.59 71.76L4.37 71.04L4.19 70.31L4.02 69.56L3.89 68.81L3.79 68.04L3.71 67.26L3.67 66.46L3.65 65.66L3.67 64.86L3.72 64.07L3.8 63.29L3.91 62.52L4.05 61.76L4.22 61.02L4.41 60.28L4.64 59.56L4.89 58.86L5.17 58.17L5.48 57.49L5.81 56.83L6.16 56.18L6.54 55.56L6.95 54.94L7.37 54.35L7.82 53.77L8.29 53.22L8.78 52.68L9.28 52.16L9.81 51.66L10.36 51.18L10.92 50.73L11.5 50.29L12.1 49.88L12.72 49.49L13.34 49.12L13.99 48.78L14.65 48.46L15.32 48.17L16 47.9L16.69 47.66L17.4 47.44L18.12 47.25L18.84 47.09L19.58 46.96L20.32 46.86L21.07 46.78L21.83 46.73L22.6 46.72L63.04 46.72L63.69 44.58L64.41 42.48L65.18 40.4L66.03 38.36L66.93 36.35L67.89 34.38L68.92 32.44L70 30.54L71.14 28.68L72.34 26.86L73.59 25.08L74.9 23.35L76.25 21.65L77.66 20.01L79.12 18.41L80.62 16.85L82.18 15.35L83.78 13.89L85.42 12.49L87.11 11.14L88.84 9.84L90.61 8.6L92.42 7.41L94.27 6.28L96.15 5.21L98.08 4.2L100.03 3.25L102.02 2.36L104.05 1.54L106.1 0.78L108.18 0.09L110.3 -0.53L112.43 -1.09L114.6 -1.57L116.79 -1.99L119 -2.33L121.24 -2.6L123.5 -2.79L125.77 -2.91L128.07 -2.94L130.36 -2.91L132.64 -2.79ZM125.5 35.06L124.23 35.21L122.98 35.41L121.73 35.66L120.51 35.97L119.3 36.33L118.11 36.74L116.93 37.19L115.78 37.7L114.65 38.25L113.55 38.85L112.46 39.48L111.41 40.17L110.38 40.89L109.38 41.65L108.41 42.45L107.47 43.29L106.56 44.16L105.69 45.07L104.86 46L104.06 46.97L103.29 47.97L102.57 49L101.89 50.06L101.25 51.14L100.65 52.25L100.1 53.38L99.6 54.53L99.14 55.7L98.73 56.89L98.37 58.1L98.06 59.33L97.81 60.57L97.61 61.83L97.47 63.1L97.38 64.37L97.35 65.66L97.38 66.95L97.46 68.23L97.59 69.5L97.78 70.75L98.02 72L98.31 73.22L98.65 74.43L99.03 75.62L99.47 76.8L99.95 77.95L100.47 79.08L101.04 80.19L101.65 81.27L102.31 82.32L103 83.35L103.74 84.35L104.52 85.32L105.33 86.26L106.18 87.17L107.07 88.04L107.99 88.88L108.95 89.68L109.93 90.44L110.96 91.16L112.01 91.84L113.09 92.48L114.2 93.08L115.34 93.63L116.51 94.13L117.7 94.59L118.92 95L120.16 95.36L121.43 95.67L122.72 95.92L124.03 96.12L125.35 96.27L126.7 96.35L128.07 96.38L129.43 96.36L130.78 96.27L132.11 96.14L133.42 95.95L134.71 95.71L135.97 95.42L137.21 95.09L138.43 94.7L139.62 94.27L140.79 93.79L141.93 93.26L143.04 92.69L144.13 92.08L145.18 91.42L146.2 90.73L147.19 89.99L148.15 89.22L149.07 88.4L149.96 87.55L150.81 86.66L151.62 85.74L152.4 84.79L153.13 83.8L153.83 82.78L154.48 81.72L155.1 80.64L155.66 79.53L156.19 78.39L156.67 77.22L157.1 76.03L157.49 74.81L157.83 73.57L158.12 72.3L158.36 71.01L158.54 69.71L158.68 68.38L158.76 67.03L158.79 65.66L158.76 64.3L158.67 62.95L158.53 61.62L158.33 60.31L158.07 59.03L157.76 57.76L157.41 56.52L157 55.3L156.54 54.11L156.03 52.94L155.48 51.8L154.89 50.69L154.25 49.6L153.56 48.55L152.84 47.53L152.08 46.54L151.28 45.58L150.44 44.66L149.57 43.78L148.67 42.92L147.73 42.11L146.76 41.34L145.76 40.6L144.73 39.9L143.67 39.25L142.59 38.64L141.48 38.07L140.35 37.54L139.2 37.06L138.03 36.63L136.84 36.24L135.63 35.9L134.4 35.61L133.16 35.38L131.9 35.19L130.64 35.05L129.36 34.97L128.07 34.94L126.78 34.97L125.5 35.06Z" id="f14eRiu1cn"></path><path d="M132.64 299.42L134.9 299.62L137.13 299.88L139.35 300.22L141.54 300.64L143.7 301.12L145.84 301.68L147.95 302.3L150.04 302.99L152.09 303.75L154.11 304.58L156.1 305.46L158.06 306.41L159.98 307.42L161.87 308.49L163.72 309.62L165.53 310.81L167.3 312.05L169.03 313.35L170.72 314.7L172.36 316.1L173.96 317.56L175.51 319.06L177.02 320.62L178.48 322.22L179.88 323.87L181.24 325.56L182.54 327.3L183.8 329.07L184.99 330.9L186.13 332.76L187.22 334.66L188.24 336.59L189.21 338.56L190.11 340.57L190.95 342.61L191.73 344.69L192.44 346.8L193.09 348.93L382.02 348.93L382.82 348.95L383.61 348.99L384.39 349.07L385.16 349.17L385.92 349.3L386.67 349.46L387.4 349.65L388.12 349.87L388.82 350.11L389.52 350.38L390.19 350.67L390.85 350.99L391.5 351.33L392.13 351.7L392.74 352.09L393.33 352.5L393.91 352.94L394.47 353.39L395 353.87L395.52 354.37L396.02 354.89L396.5 355.43L396.96 355.99L397.39 356.56L397.8 357.16L398.19 357.77L398.56 358.4L398.9 359.04L399.22 359.7L399.52 360.38L399.78 361.07L400.03 361.78L400.24 362.5L400.43 363.23L400.59 363.97L400.72 364.73L400.83 365.5L400.9 366.28L400.95 367.07L400.96 367.87L400.95 368.68L400.9 369.47L400.82 370.25L400.71 371.02L400.57 371.78L400.4 372.52L400.2 373.25L399.98 373.97L399.72 374.68L399.44 375.37L399.14 376.05L398.81 376.71L398.45 377.35L398.07 377.98L397.67 378.59L397.24 379.19L396.8 379.76L396.33 380.32L395.84 380.86L395.33 381.38L394.8 381.88L394.26 382.36L393.69 382.81L393.11 383.25L392.51 383.66L391.9 384.05L391.27 384.42L390.63 384.76L389.97 385.08L389.3 385.37L388.62 385.64L387.92 385.88L387.22 386.1L386.5 386.29L385.77 386.45L385.04 386.58L384.29 386.68L383.54 386.76L382.78 386.8L382.02 386.82L193.09 386.82L192.44 388.95L191.73 391.06L190.95 393.13L190.11 395.18L189.21 397.18L188.24 399.16L187.22 401.09L186.13 402.99L184.99 404.85L183.8 406.67L182.54 408.45L181.24 410.19L179.88 411.88L178.48 413.53L177.02 415.13L175.51 416.69L173.96 418.19L172.36 419.65L170.72 421.05L169.03 422.4L167.3 423.7L165.53 424.94L163.72 426.13L161.87 427.26L159.98 428.33L158.06 429.34L156.1 430.29L154.11 431.17L152.09 432L150.04 432.75L147.95 433.45L145.84 434.07L143.7 434.63L141.54 435.11L139.35 435.52L137.13 435.87L134.9 436.13L132.64 436.33L130.36 436.44L128.07 436.48L125.77 436.44L123.5 436.33L121.24 436.13L119 435.87L116.79 435.52L114.6 435.11L112.43 434.63L110.3 434.07L108.18 433.45L106.1 432.75L104.05 432L102.02 431.17L100.03 430.29L98.08 429.34L96.15 428.33L94.27 427.26L92.42 426.13L90.61 424.94L88.84 423.7L87.11 422.4L85.42 421.05L83.78 419.65L82.18 418.19L80.62 416.69L79.12 415.13L77.66 413.53L76.25 411.88L74.9 410.19L73.59 408.45L72.34 406.67L71.14 404.85L70 402.99L68.92 401.09L67.89 399.16L66.93 397.18L66.03 395.18L65.18 393.13L64.41 391.06L63.69 388.95L63.04 386.82L22.6 386.82L21.79 386.8L21 386.76L20.22 386.68L19.45 386.58L18.69 386.45L17.95 386.29L17.22 386.1L16.5 385.88L15.79 385.64L15.1 385.37L14.42 385.08L13.76 384.76L13.12 384.42L12.49 384.05L11.88 383.66L11.28 383.25L10.71 382.81L10.15 382.36L9.61 381.88L9.09 381.38L8.59 380.86L8.12 380.32L7.66 379.76L7.22 379.19L6.81 378.59L6.42 377.98L6.05 377.35L5.71 376.71L5.39 376.05L5.1 375.37L4.83 374.68L4.59 373.97L4.37 373.25L4.19 372.52L4.02 371.78L3.89 371.02L3.79 370.25L3.71 369.47L3.67 368.68L3.65 367.87L3.67 367.07L3.72 366.28L3.8 365.5L3.91 364.73L4.05 363.97L4.22 363.23L4.41 362.5L4.64 361.78L4.89 361.07L5.17 360.38L5.48 359.7L5.81 359.04L6.16 358.4L6.54 357.77L6.95 357.16L7.37 356.56L7.82 355.99L8.29 355.43L8.78 354.89L9.28 354.37L9.81 353.87L10.36 353.39L10.92 352.94L11.5 352.5L12.1 352.09L12.72 351.7L13.34 351.33L13.99 350.99L14.65 350.67L15.32 350.38L16 350.11L16.69 349.87L17.4 349.65L18.12 349.46L18.84 349.3L19.58 349.17L20.32 349.07L21.07 348.99L21.83 348.95L22.6 348.93L63.04 348.93L63.69 346.8L64.41 344.69L65.18 342.61L66.03 340.57L66.93 338.56L67.89 336.59L68.92 334.66L70 332.76L71.14 330.9L72.34 329.07L73.59 327.3L74.9 325.56L76.25 323.87L77.66 322.22L79.12 320.62L80.62 319.06L82.18 317.56L83.78 316.1L85.42 314.7L87.11 313.35L88.84 312.05L90.61 310.81L92.42 309.62L94.27 308.49L96.15 307.42L98.08 306.41L100.03 305.46L102.02 304.58L104.05 303.75L106.1 302.99L108.18 302.3L110.3 301.68L112.43 301.12L114.6 300.64L116.79 300.22L119 299.88L121.24 299.62L123.5 299.42L125.77 299.31L128.07 299.27L130.36 299.31L132.64 299.42ZM125.35 337.26L124.03 337.4L122.72 337.59L121.43 337.83L120.16 338.11L118.92 338.45L117.7 338.84L116.51 339.27L115.34 339.75L114.2 340.28L113.09 340.85L112.01 341.46L110.96 342.11L109.93 342.81L108.95 343.55L107.99 344.32L107.07 345.14L106.18 345.99L105.33 346.87L104.52 347.8L103.74 348.75L103 349.74L102.31 350.76L101.65 351.82L101.04 352.9L100.47 354.01L99.95 355.15L99.47 356.32L99.03 357.51L98.65 358.73L98.31 359.97L98.02 361.24L97.78 362.52L97.59 363.83L97.46 365.16L97.38 366.51L97.35 367.87L97.38 369.24L97.47 370.59L97.61 371.92L97.81 373.23L98.06 374.51L98.37 375.78L98.73 377.02L99.14 378.24L99.6 379.43L100.1 380.6L100.65 381.74L101.25 382.85L101.89 383.93L102.57 384.99L103.29 386.01L104.06 387L104.86 387.95L105.69 388.88L106.56 389.76L107.47 390.61L108.41 391.43L109.38 392.2L110.38 392.94L111.41 393.64L112.46 394.29L113.55 394.9L114.65 395.47L115.78 396L116.93 396.48L118.11 396.91L119.3 397.3L120.51 397.64L121.73 397.92L122.98 398.16L124.23 398.35L125.5 398.49L126.78 398.57L128.07 398.59L129.36 398.57L130.64 398.49L131.9 398.35L133.16 398.16L134.4 397.92L135.63 397.64L136.84 397.3L138.03 396.91L139.2 396.48L140.35 396L141.48 395.47L142.59 394.9L143.67 394.29L144.73 393.64L145.76 392.94L146.76 392.2L147.73 391.43L148.67 390.61L149.57 389.76L150.44 388.88L151.28 387.95L152.08 387L152.84 386.01L153.56 384.99L154.25 383.93L154.89 382.85L155.48 381.74L156.03 380.6L156.54 379.43L157 378.24L157.41 377.02L157.76 375.78L158.07 374.51L158.33 373.23L158.53 371.92L158.67 370.59L158.76 369.24L158.79 367.87L158.76 366.51L158.68 365.16L158.54 363.83L158.36 362.52L158.12 361.24L157.83 359.97L157.49 358.73L157.1 357.51L156.67 356.32L156.19 355.15L155.66 354.01L155.1 352.9L154.48 351.82L153.83 350.76L153.13 349.74L152.4 348.75L151.62 347.8L150.81 346.87L149.96 345.99L149.07 345.14L148.15 344.32L147.19 343.55L146.2 342.81L145.18 342.11L144.13 341.46L143.04 340.85L141.93 340.28L140.79 339.75L139.62 339.27L138.43 338.84L137.21 338.45L135.97 338.11L134.71 337.83L133.42 337.59L132.11 337.4L130.78 337.26L129.43 337.18L128.07 337.15L126.7 337.18L125.35 337.26Z" id="a6itHl9O7v"></path></defs><g><g><use xlink:href="#a7pWvKKQIw" opacity="1" fill="#ffffff" fill-opacity="1"></use><g><use xlink:href="#a7pWvKKQIw" opacity="1" fill-opacity="0" stroke="#000000" stroke-width="1" stroke-opacity="0"></use></g></g><g><use xlink:href="#f14eRiu1cn" opacity="1" fill="#ffffff" fill-opacity="1"></use><g><use xlink:href="#f14eRiu1cn" opacity="1" fill-opacity="0" stroke="#000000" stroke-width="1" stroke-opacity="0"></use></g></g><g><use xlink:href="#a6itHl9O7v" opacity="1" fill="#ffffff" fill-opacity="1"></use><g><use xlink:href="#a6itHl9O7v" opacity="1" fill-opacity="0" stroke="#000000" stroke-width="1" stroke-opacity="0"></use></g></g></g></svg>